<?xml version="1.0" encoding="UTF-8" standalone="no"?>
<svg
   aria-hidden="true"
   width="32"
   height="32"
   version="1.1"
   id="svg2"
   sodipodi:docname="code-tabs-icons.svg"
   viewBox="0 0 32 32"
   inkscape:version="1.4.2 (ebf0e940d0, 2025-05-08)"
   xmlns:inkscape="http://www.inkscape.org/namespaces/inkscape"
   xmlns:sodipodi="http://sodipodi.sourceforge.net/DTD/sodipodi-0.dtd"
   xmlns="http://www.w3.org/2000/svg"
   xmlns:svg="http://www.w3.org/2000/svg">
  <defs
     id="defs2" />
  <sodipodi:namedview
     id="namedview2"
     pagecolor="#ffffff"
     bordercolor="#000000"
     borderopacity="0.25"
     inkscape:showpageshadow="2"
     inkscape:pageopacity="0.0"
     inkscape:pagecheckerboard="0"
     inkscape:deskcolor="#d1d1d1"
     inkscape:zoom="3.7240957"
     inkscape:cx="148.89521"
     inkscape:cy="69.278563"
     inkscape:window-width="1920"
     inkscape:window-height="1002"
     inkscape:window-x="0"
     inkscape:window-y="0"
     inkscape:window-maximized="1"
     inkscape:current-layer="svg2" />
  <symbol
     id="iconStar"
     viewBox="0 0 32 32">
    <path
       d="M 32,12.384 20.496,11.392 16,0.8 11.504,11.408 0,12.384 8.736,19.952 6.112,31.2 16,25.232 25.888,31.2 23.28,19.952 Z M 16,22.24 9.984,25.872 11.584,19.024 6.272,14.416 13.28,13.808 16,7.36 l 2.736,6.464 7.008,0.608 -5.312,4.608 1.6,6.848 z"
       id="path1" />
  </symbol>
  <symbol
     id="iconCopy"
     viewBox="0 0 32 32">
    <path
       d="M 22.545,0 H 5.09 C 3.49,0 2.181,1.309 2.181,2.909 V 23.273 H 5.09 V 2.909 h 17.455 z m 4.364,5.818 h -16 C 9.309,5.818 8,7.127 8,8.727 V 29.091 C 8,30.691 9.309,32 10.909,32 h 16 c 1.6,0 2.909,-1.309 2.909,-2.909 V 8.727 c 0,-1.6 -1.309,-2.909 -2.909,-2.909 z m 0,23.273 h -16 V 8.727 h 16 z"
       id="path2" />
  </symbol>
  <symbol
     id="iconEdit"
     viewBox="0 0 32 32">
    <path
       d="M 4,24 v 4 h 4 L 24.5,11.5 20.5,7.5 Z M 26.3,9.7 22.3,5.7 24.6,3.4 c 0.6,-0.6 1.6,-0.6 2.2,0 l 1.8,1.8 c 0.6,0.6 0.6,1.6 0,2.2 z"
       id="path3" />
  </symbol>
  <symbol
     id="iconDrag"
     viewBox="0 0 32 32">
    <path
       d="M 6,8 H 26 V 10 H 6 Z M 6,15 H 26 V 17 H 6 Z M 6,22 H 26 V 24 H 6 Z"
       id="path4" />
  </symbol>
</svg>
